<svg width="70" height="70" viewBox="0 0 70 70" fill="none" xmlns="http://www.w3.org/2000/svg">
<path d="M8.75 14.5833C8.75 11.3619 11.3619 8.75 14.5833 8.75H55.4167C58.6381 8.75 61.25 11.3619 61.25 14.5833V55.4167C61.25 58.6381 58.6381 61.25 55.4167 61.25H14.5833C11.3619 61.25 8.75 58.6381 8.75 55.4167V14.5833Z" fill="#2196F3"/>
<path d="M39.375 24.7917H49.5833V27.7084H39.375V24.7917ZM31.3717 34.1659C32.2248 33.7503 34.1469 32.8038 34.1469 29.9995C34.1469 24.7247 28.3835 24.7932 27.3175 24.7932H17.5V45.2099H27.7448C28.5979 45.2084 35 44.9678 35 39.3736C35 35.7642 32.6521 34.583 31.3717 34.1659ZM21.875 28.3326H26.145C26.5708 28.3326 29.346 28.4842 29.346 30.6251C29.346 32.7645 27.2125 33.1247 26.5723 33.1247H21.875V28.3326ZM26.74 41.6661H21.8298V36.0428H26.74C27.806 36.0428 30.154 36.3884 30.154 38.9595C30.154 41.5276 27.1658 41.6661 26.74 41.6661ZM47.3054 41.4095C46.6273 41.8309 45.9506 42.0453 45.0465 42.0453C41.6544 42.0453 40.9792 39.1855 40.9792 37.9182H52.5C52.5 36.6509 52.5 35.7147 52.274 34.6574C52.0465 33.6001 50.5021 29.1667 44.8204 29.1667C36.8798 29.1667 36.4583 36.1347 36.4583 37.1876C36.4583 38.242 36.6858 39.5107 37.1394 40.3536C37.59 41.4095 38.0421 42.2553 38.7202 42.8853C39.3969 43.5197 40.2996 44.1482 41.2038 44.5726C42.3325 44.997 43.4627 45.2084 44.5929 45.2084C46.3983 45.2084 47.9821 44.7884 49.3369 43.9426C50.6946 43.0982 51.5973 41.8309 52.274 40.1422H48.4342C48.2081 40.5651 47.9821 40.9851 47.3054 41.4095ZM44.8204 32.1228C47.0342 32.1228 47.9821 34.4445 48.2067 35.4974H40.9792C40.9792 35.2888 41.5202 32.1228 44.8204 32.1228Z" fill="white"/>
</svg>
