<svg width="38" height="57" viewBox="0 0 38 57" fill="none" xmlns="http://www.w3.org/2000/svg">
<path d="M19.9822 18.7222L9.32503 18.7222C4.17495 18.7222 -3.78437e-08 14.5311 -2.43793e-08 9.36109C-1.0915e-08 4.19109 4.17495 -1.03388e-08 9.32503 -2.30924e-08L19.9822 -4.94838e-08L19.9822 18.7222Z" fill="#E64A19"/>
<path d="M18.6501 37.4444L9.32503 37.4444C4.17495 37.4444 -3.78437e-08 33.2533 -2.43793e-08 28.0833C-1.0915e-08 22.9133 4.17495 18.7222 9.32503 18.7222L18.6501 18.7222L18.6501 37.4444Z" fill="#7C4DFF"/>
<path d="M9.32503 56.1665C4.17495 56.1665 -3.78437e-08 51.9754 -2.43793e-08 46.8054C-1.0915e-08 41.6354 4.17495 37.4443 9.32503 37.4443L18.6501 37.4443L18.6501 46.8054C18.6501 51.9754 14.4751 56.1665 9.32503 56.1665Z" fill="#66BB6A"/>
<path d="M27.9751 18.7222L18.65 18.7222L18.65 0L27.9751 -2.30924e-08C33.1251 -3.58461e-08 37.3001 4.19109 37.3001 9.36109C37.3001 14.5311 33.1251 18.7222 27.9751 18.7222Z" fill="#FF7043"/>
<path d="M27.9751 37.4444C33.1251 37.4444 37.3001 33.2532 37.3001 28.0833C37.3001 22.9133 33.1251 18.7222 27.9751 18.7222C22.825 18.7222 18.65 22.9133 18.65 28.0833C18.65 33.2532 22.825 37.4444 27.9751 37.4444Z" fill="#29B6F6"/>
</svg>
