<svg width="65" height="49" viewBox="0 0 65 49" fill="none" xmlns="http://www.w3.org/2000/svg">
<path d="M64.3984 12.5564L56.7319 16.7673L49.0654 24.0408L49.0654 49.0001L59.7985 49.0001C62.3392 49.0001 64.3984 46.9436 64.3984 44.4064L64.3984 12.5564Z" fill="#4CAF50"/>
<path d="M0 12.5564L5.54132 15.1748L15.3329 24.0408L15.3329 49.0001L4.59988 49.0001C2.05921 49.0001 -9.0022e-08 46.9436 -8.33796e-08 44.4064L0 12.5564Z" fill="#1E88E5"/>
<path d="M49.0654 4.8999L32.1992 17.5327L15.333 4.8999L13.7997 13.7811L15.333 24.0405L32.1992 36.6733L49.0654 24.0405L50.5987 13.7811L49.0654 4.8999Z" fill="#E53935"/>
<path d="M-1.46247e-08 6.58131L-2.79019e-08 12.5562L15.3329 24.0406L15.3329 4.9L10.5429 1.31534C9.40216 0.460906 8.01606 -2.32649e-08 6.59009 -1.91263e-08C2.95006 -8.56191e-09 -6.54674e-09 2.94612 -1.46247e-08 6.58131Z" fill="#C62828"/>
<path d="M64.3984 6.58131L64.3984 12.5562L49.0654 24.0406L49.0654 4.9L53.8554 1.31534C54.9962 0.460906 56.3823 -2.12357e-08 57.8083 -2.53742e-08C61.4483 -3.59386e-08 64.3984 2.94612 64.3984 6.58131Z" fill="#FBC02D"/>
</svg>
