<svg width="68" height="68" viewBox="0 0 68 68" fill="none" xmlns="http://www.w3.org/2000/svg">
<path d="M66.1984 22.0564L58.5319 26.2673L50.8655 33.5408L50.8655 58.5001L61.5985 58.5001C64.1392 58.5001 66.1984 56.4436 66.1984 53.9064L66.1984 22.0564Z" fill="#4CAF50"/>
<path d="M1.80005 22.0564L7.34137 24.6748L17.133 33.5408L17.133 58.5001L6.39993 58.5001C3.85926 58.5001 1.80005 56.4436 1.80005 53.9064L1.80005 22.0564Z" fill="#1E88E5"/>
<path d="M50.8655 14.3999L33.9993 27.0327L17.133 14.3999L15.5997 23.2811L17.133 33.5405L33.9993 46.1733L50.8655 33.5405L52.3988 23.2811L50.8655 14.3999Z" fill="#E53935"/>
<path d="M1.80005 16.0813L1.80005 22.0562L17.133 33.5406L17.133 14.4L12.343 10.8153C11.2022 9.96091 9.81611 9.5 8.39014 9.5C4.7501 9.5 1.80005 12.4461 1.80005 16.0813Z" fill="#C62828"/>
<path d="M66.1984 16.0813L66.1984 22.0562L50.8655 33.5406L50.8655 14.4L55.6555 10.8153C56.7963 9.96091 58.1824 9.5 59.6083 9.5C63.2484 9.5 66.1984 12.4461 66.1984 16.0813Z" fill="#FBC02D"/>
</svg>
