<svg width="68" height="68" viewBox="0 0 68 68" fill="none" xmlns="http://www.w3.org/2000/svg">
<path d="M62.3335 34.0001C62.3335 49.6472 49.6473 62.3334 34.0002 62.3334C18.3531 62.3334 5.66687 49.6472 5.66687 34.0001C5.66687 18.353 18.3531 5.66675 34.0002 5.66675C49.6473 5.66675 62.3335 18.353 62.3335 34.0001Z" fill="url(#paint0_linear_35_42)"/>
<path opacity="0.05" d="M14.3355 33.2434C25.8884 28.0088 39.4573 22.3294 41.5469 21.5077C46.1539 19.6958 48.1627 21.5474 47.8482 24.5012C47.4614 28.1207 45.6283 38.6537 44.5006 46.2002C43.8404 50.616 41.4491 51.9689 38.7504 50.2561C36.7033 48.9571 29.6653 44.3487 27.8137 42.7733C26.5514 41.6995 25.6717 40.4953 26.567 39.2685C26.8291 38.9101 27.4992 38.1876 27.8718 37.8277C29.7404 36.0172 29.4882 35.6277 27.2286 37.2441C26.9594 37.4367 25.3983 38.5687 24.7565 38.9965C23.184 40.0448 21.7376 40.1015 19.2854 39.2685C17.2794 38.5871 15.3527 38.0615 14.1372 37.5359C12.4584 36.8092 11.8153 34.3852 14.3355 33.2434Z" fill="black"/>
<path opacity="0.07" d="M15.3512 33.4206C26.0782 28.6252 39.2702 23.1299 41.1997 22.3522C45.8237 20.485 47.5251 21.5928 47.0279 25.2011C46.566 28.5416 44.927 38.8776 43.778 45.8065C43.1009 49.8851 41.1232 50.7832 38.5477 49.1172C36.9341 48.0774 30.4401 43.7991 28.8648 42.5538C27.6465 41.5919 26.3842 40.4812 27.859 38.8733C28.352 38.3364 31.0748 35.7085 33.1105 33.7535C34.2906 32.6187 33.8699 32.0592 32.4461 33.0338C29.8352 34.8231 25.564 37.655 24.8018 38.1692C23.3497 39.1467 21.9855 39.3819 19.6111 38.6353C17.7397 38.046 15.932 37.4751 14.99 37.1082C12.8848 36.2922 12.8565 34.5355 15.3512 33.4206Z" fill="black"/>
<path d="M16.367 33.5991C26.2695 29.2428 39.0833 23.9317 40.8527 23.1965C45.4923 21.2727 46.916 21.641 46.2063 25.9023C45.6963 28.9652 44.2258 39.1042 43.0528 45.4155C42.3572 49.1583 40.796 49.6017 38.3423 47.9825C37.1623 47.2033 31.2052 43.2636 29.9118 42.3385C28.7317 41.4956 27.1039 40.4812 29.1453 38.4837C29.8721 37.7726 34.6335 33.2251 38.3438 29.6862C38.8297 29.2216 38.2191 28.458 37.6581 28.8306C32.6573 32.147 25.7241 36.7497 24.8415 37.349C23.5084 38.2542 22.2278 38.6693 19.9299 38.0092C18.1931 37.5105 16.4973 36.9155 15.8372 36.6888C13.2943 35.8162 13.8978 34.6857 16.367 33.5991Z" fill="white"/>
<defs>
<linearGradient id="paint0_linear_35_42" x1="13.9657" y1="13.9656" x2="54.0347" y2="54.0346" gradientUnits="userSpaceOnUse">
<stop stop-color="#33BEF0"/>
<stop offset="1" stop-color="#0A85D9"/>
</linearGradient>
</defs>
</svg>
